<svg width="575" height="575" viewBox="0 0 575 575" fill="none" xmlns="http://www.w3.org/2000/svg">
<path d="M0 56C0 25.0721 25.0721 0 56 0H519C549.928 0 575 25.0721 575 56V519C575 549.928 549.928 575 519 575H56C25.0721 575 0 549.928 0 519V56Z" fill="#006FEE"/>
<path d="M434.048 109.728H415.646L410.388 129.007C406.006 146.534 388.917 159.679 371.391 159.679C361.751 159.679 352.55 155.735 347.292 148.287C341.596 140.838 339.843 130.76 342.472 121.12L345.539 109.728H286.387L281.129 129.007C276.309 146.534 259.659 159.679 241.694 159.679C232.054 159.679 223.291 155.735 217.595 148.287C211.899 140.838 210.146 130.76 212.775 121.12L215.842 109.728H196.563C167.206 109.728 137.849 132.513 130.4 161.87L76.0675 362.111C71.6858 377.885 74.3148 393.659 83.5163 405.051C92.2796 416.444 105.863 423.016 121.198 423.016H147.927V434.847C147.927 465.956 173.34 491.37 204.45 491.37H434.048C465.158 491.37 490.572 465.956 490.572 434.847V166.251C490.572 135.142 465.158 109.728 434.048 109.728ZM121.637 388.839C118.131 388.839 113.75 387.963 111.121 384.458C108.492 381.39 108.054 376.571 109.806 371.313L154.499 203.934H427.038L384.536 362.549C380.592 377.009 365.257 389.277 351.235 389.277H121.637V388.839ZM456.395 434.847C456.395 447.115 446.317 457.193 434.048 457.193H204.888C192.619 457.193 182.542 447.115 182.542 434.847V423.016H351.235C380.592 423.016 409.949 400.232 417.398 370.875L456.395 225.842V434.847Z" fill="white"/>
<path d="M241.694 143.905C252.21 143.905 262.726 135.58 265.355 125.064L271.49 101.841C274.119 91.3251 267.984 83 257.907 83C247.391 83 236.875 91.3251 234.246 101.841L228.111 125.064C225.482 135.142 231.617 143.905 241.694 143.905Z" fill="white"/>
<path d="M371.391 143.905C381.907 143.905 392.423 135.58 395.052 125.064L401.186 101.841C403.815 91.3251 397.681 83 387.603 83C377.087 83 366.571 91.3251 363.942 101.841L357.369 125.064C354.74 135.142 360.875 143.905 371.391 143.905Z" fill="white"/>
<path d="M283.32 306.902H242.571C239.942 306.902 236.875 309.093 235.998 311.722L228.111 341.517C227.235 344.146 228.988 346.337 231.617 346.337H272.366C274.995 346.337 278.062 344.146 278.938 341.517L286.825 311.722C287.702 309.093 285.949 306.902 283.32 306.902Z" fill="white"/>
<path d="M211.46 306.902H170.711C168.082 306.902 165.015 309.093 164.138 311.722L156.251 341.517C155.375 344.146 157.128 346.337 159.757 346.337H200.506C203.135 346.337 206.202 344.146 207.079 341.517L214.966 311.722C215.842 309.093 214.527 306.902 211.46 306.902Z" fill="white"/>
<path d="M355.178 306.902H314.429C311.8 306.902 308.733 309.093 307.857 311.722L299.97 341.517C299.093 344.146 300.846 346.337 303.475 346.337H344.224C346.853 346.337 349.92 344.146 350.797 341.517L358.684 311.722C359.56 309.093 357.807 306.902 355.178 306.902Z" fill="white"/>
<path d="M299.97 244.245H259.221C256.592 244.245 253.525 246.436 252.649 249.065L244.762 278.86C243.885 281.489 245.638 283.68 248.267 283.68H289.016C291.645 283.68 294.712 281.489 295.589 278.86L303.476 249.065C304.352 246.436 303.038 244.245 299.97 244.245Z" fill="white"/>
<path d="M228.549 244.245H187.8C185.171 244.245 182.104 246.436 181.227 249.065L173.34 278.86C172.464 281.489 174.217 283.68 176.846 283.68H217.595C220.224 283.68 223.291 281.489 224.167 278.86L232.054 249.065C232.931 246.436 231.178 244.245 228.549 244.245Z" fill="white"/>
<path d="M320.564 284.118H361.314C363.943 284.118 367.01 281.927 367.886 279.298L375.773 249.503C376.649 246.874 374.897 244.683 372.268 244.683H331.518C328.889 244.683 325.822 246.874 324.946 249.503L317.059 279.298C316.183 281.489 317.497 284.118 320.564 284.118Z" fill="white"/>
</svg>
