<svg width="1554" height="409" viewBox="0 0 1554 409" fill="none" xmlns="http://www.w3.org/2000/svg">
<path d="M360.048 26.728H341.646L336.388 46.0073C332.006 63.5339 314.917 76.6789 297.391 76.6789C287.751 76.6789 278.55 72.7354 273.292 65.2866C267.596 57.8378 265.843 47.76 268.472 38.1203L271.539 26.728H212.387L207.129 46.0073C202.309 63.5339 185.659 76.6789 167.694 76.6789C158.054 76.6789 149.291 72.7354 143.595 65.2866C137.899 57.8378 136.146 47.76 138.775 38.1203L141.842 26.728H122.563C93.2058 26.728 63.8488 49.5126 56.4 78.8697L2.06747 279.111C-2.31418 294.885 0.314809 310.659 9.51628 322.051C18.2796 333.444 31.8627 340.016 47.1985 340.016H73.9266V351.847C73.9266 382.956 99.3402 408.37 130.45 408.37H360.048C391.158 408.37 416.572 382.956 416.572 351.847V83.2513C416.572 52.1416 391.158 26.728 360.048 26.728ZM47.6367 305.839C44.1313 305.839 39.7497 304.963 37.1207 301.458C34.4917 298.39 34.0535 293.571 35.8062 288.313L80.499 120.934H353.038L310.536 279.549C306.592 294.009 291.257 306.277 277.235 306.277H47.6367V305.839ZM382.395 351.847C382.395 364.115 372.317 374.193 360.048 374.193H130.888C118.619 374.193 108.542 364.115 108.542 351.847V340.016H277.235C306.592 340.016 335.949 317.232 343.398 287.875L382.395 142.842V351.847Z" fill="black"/>
<path d="M167.694 60.905C178.21 60.905 188.726 52.5798 191.355 42.0639L197.49 18.8411C200.119 8.32514 193.984 0 183.907 0C173.391 0 162.875 8.32514 160.246 18.8411L154.111 42.0639C151.482 52.1417 157.617 60.905 167.694 60.905Z" fill="black"/>
<path d="M297.391 60.905C307.907 60.905 318.423 52.5798 321.052 42.0639L327.186 18.8411C329.815 8.32514 323.681 0 313.603 0C303.087 0 292.571 8.32514 289.942 18.8411L283.369 42.0639C280.74 52.1417 286.875 60.905 297.391 60.905Z" fill="black"/>
<path d="M209.32 223.902H168.571C165.942 223.902 162.875 226.093 161.998 228.722L154.111 258.517C153.235 261.146 154.988 263.337 157.617 263.337H198.366C200.995 263.337 204.062 261.146 204.938 258.517L212.825 228.722C213.702 226.093 211.949 223.902 209.32 223.902Z" fill="black"/>
<path d="M137.46 223.902H96.7108C94.0819 223.902 91.0147 226.093 90.1384 228.722L82.2514 258.517C81.3751 261.146 83.1277 263.337 85.7567 263.337H126.506C129.135 263.337 132.202 261.146 133.079 258.517L140.966 228.722C141.842 226.093 140.527 223.902 137.46 223.902Z" fill="black"/>
<path d="M281.178 223.902H240.429C237.8 223.902 234.733 226.093 233.857 228.722L225.97 258.517C225.093 261.146 226.846 263.337 229.475 263.337H270.224C272.853 263.337 275.92 261.146 276.797 258.517L284.684 228.722C285.56 226.093 283.807 223.902 281.178 223.902Z" fill="black"/>
<path d="M225.97 161.245H185.221C182.592 161.245 179.525 163.436 178.649 166.065L170.762 195.86C169.885 198.489 171.638 200.68 174.267 200.68H215.016C217.645 200.68 220.712 198.489 221.589 195.86L229.476 166.065C230.352 163.436 229.038 161.245 225.97 161.245Z" fill="black"/>
<path d="M154.549 161.245H113.8C111.171 161.245 108.104 163.436 107.227 166.065L99.3403 195.86C98.4639 198.489 100.217 200.68 102.846 200.68H143.595C146.224 200.68 149.291 198.489 150.167 195.86L158.054 166.065C158.931 163.436 157.178 161.245 154.549 161.245Z" fill="black"/>
<path d="M246.564 201.118H287.314C289.943 201.118 293.01 198.927 293.886 196.298L301.773 166.503C302.649 163.874 300.897 161.683 298.268 161.683H257.518C254.889 161.683 251.822 163.874 250.946 166.503L243.059 196.298C242.183 198.489 243.497 201.118 246.564 201.118Z" fill="black"/>
<path d="M758.152 137.901V321.903H713.38V211.554L672.273 321.903H636.141L594.772 211.292V321.903H550V137.901H602.889L654.469 265.287L705.525 137.901H758.152Z" fill="black"/>
<path d="M781.447 248.512C781.447 233.484 784.24 220.291 789.825 208.933C795.585 197.575 803.353 188.838 813.128 182.722C822.903 176.606 833.812 173.548 845.856 173.548C856.155 173.548 865.144 175.645 872.824 179.839C880.679 184.032 886.701 189.537 890.89 196.352V175.645H935.663V321.903H890.89V301.196C886.527 308.011 880.417 313.516 872.563 317.709C864.882 321.903 855.893 324 845.594 324C833.725 324 822.903 320.942 813.128 314.826C803.353 308.535 795.585 299.711 789.825 288.353C784.24 276.82 781.447 263.54 781.447 248.512ZM890.89 248.774C890.89 237.59 887.749 228.766 881.465 222.301C875.355 215.835 867.85 212.602 858.948 212.602C850.045 212.602 842.453 215.835 836.169 222.301C830.059 228.591 827.005 237.328 827.005 248.512C827.005 259.695 830.059 268.607 836.169 275.247C842.453 281.713 850.045 284.945 858.948 284.945C867.85 284.945 875.355 281.713 881.465 275.247C887.749 268.782 890.89 259.957 890.89 248.774Z" fill="black"/>
<path d="M1012.83 200.021C1018.06 191.983 1024.61 185.692 1032.46 181.149C1040.32 176.431 1049.05 174.072 1058.65 174.072V221.514H1046.34C1035.17 221.514 1026.79 223.961 1021.2 228.853C1015.62 233.571 1012.83 241.959 1012.83 254.016V321.903H968.054V175.645H1012.83V200.021Z" fill="black"/>
<path d="M1071.14 248.774C1071.14 233.571 1074.2 220.291 1080.31 208.933C1086.59 197.575 1095.23 188.838 1106.23 182.722C1117.4 176.606 1130.14 173.548 1144.46 173.548C1162.78 173.548 1178.06 178.353 1190.28 187.964C1202.67 197.575 1210.79 211.117 1214.63 228.591H1166.97C1162.96 217.408 1155.19 211.816 1143.67 211.816C1135.47 211.816 1128.92 215.049 1124.03 221.514C1119.15 227.805 1116.7 236.892 1116.7 248.774C1116.7 260.656 1119.15 269.83 1124.03 276.296C1128.92 282.586 1135.47 285.732 1143.67 285.732C1155.19 285.732 1162.96 280.14 1166.97 268.957H1214.63C1210.79 286.081 1202.67 299.536 1190.28 309.322C1177.88 319.107 1162.61 324 1144.46 324C1130.14 324 1117.4 320.942 1106.23 314.826C1095.23 308.71 1086.59 299.973 1080.31 288.615C1074.2 277.257 1071.14 263.976 1071.14 248.774Z" fill="black"/>
<path d="M1229.67 248.512C1229.67 233.484 1232.46 220.291 1238.05 208.933C1243.81 197.575 1251.58 188.838 1261.35 182.722C1271.13 176.606 1282.04 173.548 1294.08 173.548C1304.38 173.548 1313.37 175.645 1321.05 179.839C1328.9 184.032 1334.93 189.537 1339.12 196.352V175.645H1383.89V321.903H1339.12V301.196C1334.75 308.011 1328.64 313.516 1320.79 317.709C1313.11 321.903 1304.12 324 1293.82 324C1281.95 324 1271.13 320.942 1261.35 314.826C1251.58 308.535 1243.81 299.711 1238.05 288.353C1232.46 276.82 1229.67 263.54 1229.67 248.512ZM1339.12 248.774C1339.12 237.59 1335.97 228.766 1329.69 222.301C1323.58 215.835 1316.07 212.602 1307.17 212.602C1298.27 212.602 1290.68 215.835 1284.39 222.301C1278.28 228.591 1275.23 237.328 1275.23 248.512C1275.23 259.695 1278.28 268.607 1284.39 275.247C1290.68 281.713 1298.27 284.945 1307.17 284.945C1316.07 284.945 1323.58 281.713 1329.69 275.247C1335.97 268.782 1339.12 259.957 1339.12 248.774Z" fill="black"/>
<path d="M1554 246.415C1554 250.609 1553.74 254.977 1553.21 259.521H1451.89C1452.59 268.607 1455.47 275.597 1460.53 280.489C1465.76 285.207 1472.14 287.566 1479.64 287.566C1490.81 287.566 1498.58 282.848 1502.94 273.412H1550.6C1548.15 283.023 1543.7 291.673 1537.24 299.361C1530.96 307.05 1523.02 313.079 1513.42 317.447C1503.82 321.816 1493.08 324 1481.21 324C1466.9 324 1454.16 320.942 1442.99 314.826C1431.81 308.71 1423.09 299.973 1416.8 288.615C1410.52 277.257 1407.38 263.976 1407.38 248.774C1407.38 233.571 1410.43 220.291 1416.54 208.933C1422.82 197.575 1431.55 188.838 1442.72 182.722C1453.89 176.606 1466.72 173.548 1481.21 173.548C1495.35 173.548 1507.92 176.518 1518.92 182.46C1529.91 188.401 1538.46 196.876 1544.57 207.884C1550.86 218.893 1554 231.737 1554 246.415ZM1508.18 234.62C1508.18 226.931 1505.56 220.815 1500.33 216.272C1495.09 211.729 1488.54 209.457 1480.69 209.457C1473.18 209.457 1466.81 211.641 1461.58 216.01C1456.51 220.378 1453.37 226.582 1452.15 234.62H1508.18ZM1480.69 143.143L1440.11 164.636V133.707L1480.69 113L1521.27 133.707V164.636L1480.69 143.143Z" fill="black"/>
</svg>
